<mxfile host="app.diagrams.net" modified="2023-11-14T22:29:26.027Z" agent="Mozilla/5.0 (Macintosh; Intel Mac OS X 10_15_7) AppleWebKit/537.36 (KHTML, like Gecko) Chrome/119.0.0.0 Safari/537.36" version="22.1.1" etag="IB3JGapukcwz9v3-A9G7" type="github">
  <diagram name="Page-1" id="_uYDN7nyUw2nrpXqTTcO">
    <mxGraphModel>
      <root>
        <mxCell id="0" />
        <mxCell id="1" parent="0" />
      </root>
    </mxGraphModel>
  </diagram>
</mxfile>
